<svg width="143" height="170" viewBox="0 0 143 170" fill="none" xmlns="http://www.w3.org/2000/svg">
<g clip-path="url(#clip0_502_7)">
<path d="M64.3884 7.25534V13.9832H32.3861H0.383789V85V156.017H32.3861H64.3884V162.745V169.473H71.5H78.6116V85V0.527434H71.5H64.3884V7.25534ZM64.3884 85V141.44H39.6849H14.9813V85V28.5604H39.6849H64.3884V85Z" fill="#808080"/>
<path d="M96.9521 21.2718V28.5604H112.485H128.019L128.094 38.1663L128.206 47.8096L135.43 47.9218L142.616 47.9965V30.9899V13.9832H119.784H96.9521V21.2718Z" fill="#808080"/>
<path d="M128.093 85.0747L128.206 105.744L135.43 105.856L142.616 105.931V85.1869V64.4425H135.317H128.019L128.093 85.0747Z" fill="#808080"/>
<path d="M128.019 131.908V141.44L112.598 141.514L97.1393 141.626L97.027 148.803L96.9521 156.017H119.784H142.616V139.197V122.377H135.317H128.019V131.908Z" fill="#808080"/>
</g>
<defs>
<clipPath id="clip0_502_7">
<rect width="143" height="170" fill="white"/>
</clipPath>
</defs>
</svg>
